<svg xmlns="http://www.w3.org/2000/svg" width="512" height="512" viewBox="0 0 512 512">
  <rect width="512" height="512" rx="128" fill="#171a15"/>
  <circle cx="256" cy="256" r="164" fill="#d9f99d"/>
  <path d="M112 256c0-54 34-90 80-90 34 0 58 22 64 34 6-12 30-34 64-34 46 0 80 36 80 90s-34 90-80 90c-34 0-58-22-64-34-6 12-30 34-64 34-46 0-80-36-80-90Zm56 0c0 26 12 40 30 40 15 0 27-13 44-40-17-27-29-40-44-40-18 0-30 14-30 40Zm102 0c17 27 29 40 44 40 18 0 30-14 30-40s-12-40-30-40c-15 0-27 13-44 40Z" fill="#172011"/>
</svg>
